<svg height="496pt" viewBox="0 0 496 496" width="496pt" xmlns="http://www.w3.org/2000/svg"><path d="m232 312h256v-304h-304v256" fill="#f0d365"/><path d="m216 312v-112h64v112h-48" fill="#e8eff4"/><path d="m248 368c0 66.273438-53.726562 120-120 120s-120-53.726562-120-120 53.726562-120 120-120 120 53.726562 120 120zm0 0" fill="#8bd2f5"/><path d="m144 384h64v-16l-64-16v-56c0-8.839844-7.160156-16-16-16s-16 7.160156-16 16v56l-64 16v16h64v16l-24 24v16l40-16 40 16v-16l-24-24zm0 0" fill="#fff"/><path d="m264 8h144v80h-144zm0 0" fill="#e8eff4"/><path d="m392 200h64v112h-64zm0 0" fill="#e8eff4"/><path d="m168 448c-1.007812 0-2.015625-.183594-2.96875-.566406l-37.03125-14.816406-37.03125 14.816406c-2.457031.972656-5.257812.6875-7.457031-.808594-2.191407-1.488281-3.511719-3.96875-3.511719-6.625v-16c0-2.121094.839844-4.160156 2.34375-5.65625l21.65625-21.65625v-4.6875h-56c-4.425781 0-8-3.585938-8-8v-16c0-3.671875 2.496094-6.871094 6.0625-7.761719l57.9375-14.484375v-49.753906c0-13.230469 10.769531-24 24-24s24 10.769531 24 24v49.753906l57.9375 14.484375c3.566406.890625 6.0625 4.089844 6.0625 7.761719v16c0 4.414062-3.574219 8-8 8h-56v4.6875l21.65625 21.65625c1.503906 1.496094 2.34375 3.535156 2.34375 5.65625v16c0 2.65625-1.320312 5.136719-3.511719 6.625-1.34375.910156-2.914062 1.375-4.488281 1.375zm-40-32c1.007812 0 2.015625.191406 2.96875.566406l29.03125 11.617188v-.871094l-21.65625-21.65625c-1.503906-1.496094-2.34375-3.535156-2.34375-5.65625v-16c0-4.414062 3.574219-8 8-8h56v-1.753906l-57.9375-14.484375c-3.566406-.890625-6.0625-4.089844-6.0625-7.761719v-56c0-4.40625-3.585938-8-8-8s-8 3.59375-8 8v56c0 3.671875-2.496094 6.871094-6.0625 7.761719l-57.9375 14.484375v1.753906h56c4.425781 0 8 3.585938 8 8v16c0 2.121094-.839844 4.160156-2.34375 5.65625l-21.65625 21.65625v.871094l29.03125-11.617188c.953125-.375 1.960938-.566406 2.96875-.566406zm0 0"/><path d="m128 496c-70.574219 0-128-57.425781-128-128s57.425781-128 128-128 128 57.425781 128 128-57.425781 128-128 128zm0-240c-61.761719 0-112 50.238281-112 112s50.238281 112 112 112 112-50.238281 112-112-50.238281-112-112-112zm0 0"/><path d="m488 320h-256v-16h248v-288h-288v248h-16v-256c0-4.414062 3.574219-8 8-8h304c4.425781 0 8 3.585938 8 8v304c0 4.414062-3.574219 8-8 8zm0 0"/><path d="m408 96h-144c-4.425781 0-8-3.585938-8-8v-80c0-4.414062 3.574219-8 8-8h144c4.425781 0 8 3.585938 8 8v80c0 4.414062-3.574219 8-8 8zm-136-16h128v-64h-128zm0 0"/><path d="m456 320h-64c-4.425781 0-8-3.585938-8-8v-112c0-4.414062 3.574219-8 8-8h64c4.425781 0 8 3.585938 8 8v112c0 4.414062-3.574219 8-8 8zm-56-16h48v-96h-48zm0 0"/><path d="m280 320h-48v-16h40v-96h-48v80h-16v-88c0-4.414062 3.574219-8 8-8h64c4.425781 0 8 3.585938 8 8v112c0 4.414062-3.574219 8-8 8zm0 0"/><path d="m120 208h16v16h-16zm0 0"/><path d="m120 176h16v16h-16zm0 0"/><path d="m120 144h16v16h-16zm0 0"/><path d="m120 112h16v16h-16zm0 0"/><path d="m120 80h16v16h-16zm0 0"/><path d="m88 176h16v16h-16zm0 0"/><path d="m88 144h16v16h-16zm0 0"/><path d="m88 112h16v16h-16zm0 0"/><path d="m88 80h16v16h-16zm0 0"/><path d="m88 48h16v16h-16zm0 0"/></svg>